Coordinates
version=1
nRows=14
nColumns=36
inDegrees=yes

Units are S.I. units (second, meters, Newtons, ...)
If the header above contains a line with 'inDegrees', this indicates whether rotational values are in degrees (yes) or radians (no).

endheader
time	pelvis_tilt	pelvis_list	pelvis_rotation	pelvis_tx	pelvis_ty	pelvis_tz	hip_flexion_r	hip_adduction_r	hip_rotation_r	knee_angle_r	knee_angle_r_beta	ankle_angle_r	subtalar_angle_r	mtp_angle_r	hip_flexion_l	hip_adduction_l	hip_rotation_l	knee_angle_l	knee_angle_l_beta	ankle_angle_l	subtalar_angle_l	mtp_angle_l	lumbar_extension	lumbar_bending	lumbar_rotation	arm_flex_r	arm_add_r	arm_rot_r	elbow_flex_r	pro_sup_r	arm_flex_l	arm_add_l	arm_rot_l	elbow_flex_l	pro_sup_l
      3.58333330	    -14.45535642	      3.30822888	      1.68789698	      0.78472292	      0.84346781	      0.03214403	     59.40416316	    -12.48508630	      1.42964525	     67.02415805	      1.16979224	     24.07045505	    -13.59344715	     -7.49999987	     56.36140140	    -11.50160656	    -10.87807840	     64.68951282	      1.12904499	     23.95021790	    -10.55394701	     -7.49999987	    -41.96353021	      0.50503667	      5.61645480	     57.01085136	    -12.09772120	     37.64908206	    107.16294945	     95.79562590	     34.13373695	     -2.01600563	     13.90425052	    124.56851173	     83.92183209
      3.60000000	    -15.75625335	      3.14063333	      1.69113580	      0.77870260	      0.83523502	      0.03610500	     61.31812083	    -12.63835042	      0.62559947	     66.98918067	      1.16918177	     24.27907900	    -11.71610317	     -7.49999987	     58.81624336	    -12.36989737	    -10.90044703	     65.57363483	      1.14447583	     22.84062857	    -10.67178106	     -7.49999987	    -44.59402388	      0.04889474	      4.89336818	     61.78582383	     -9.86166853	     37.91138309	    110.12134724	     95.20426811	     41.42069469	     -1.49063412	     15.82573528	    125.48559170	     84.00182922
      3.61666670	    -16.98331681	      3.02799095	      1.44556786	      0.76968708	      0.82420797	      0.03608232	     63.77141396	    -12.88853465	      0.09655249	     67.69948944	      1.18157899	     24.47016393	    -10.08955547	     -7.49999987	     61.62038385	    -13.20533996	    -10.85707723	     67.11322400	      1.17134673	     22.95014027	    -10.04709486	     -7.49999987	    -46.66646432	     -0.40623770	      3.97326519	     66.44697248	     -7.59307106	     38.25073128	    113.43196714	     96.52534557	     49.26086219	     -2.01896209	     17.23271563	    126.60706626	     84.73450019
      3.63333330	    -17.81014170	      3.03680766	      1.16953779	      0.76817581	      0.82036542	      0.03759759	     65.07617789	    -13.02006902	     -0.15179756	     67.99883850	      1.18680362	     25.06333558	     -8.32351454	     -7.49999987	     63.19843702	    -14.00109218	    -11.21035783	     67.94329207	      1.18583415	     22.75774481	     -9.12036808	     -7.49999987	    -48.44300486	     -1.04827301	      3.85535116	     69.90716773	     -6.46310233	     38.03001247	    116.84656073	    101.95340866	     55.94566815	     -2.34343188	     18.64393651	    127.30878679	     89.23891398
      3.65000000	    -18.91938247	      2.80772202	      1.07790237	      0.74820042	      0.81121834	      0.04857069	     67.55469126	    -12.68075929	     -0.40253162	     68.83408792	      1.20138147	     24.82010922	     -7.62028759	     -7.49999987	     65.74592785	    -15.05499525	    -11.24662572	     68.78220311	      1.20047591	     22.75043866	     -8.13748870	     -7.49999987	    -49.77769697	     -1.74592131	      3.37308224	     73.97028055	     -5.11343467	     38.23141106	    119.78008386	    102.14764317	     62.28499784	     -2.58562523	     19.00311771	    129.40401601	     89.66439578
      3.66666670	    -19.98344408	      2.41031233	      1.32620940	      0.74293859	      0.80371723	      0.05801883	     69.88745385	    -12.05185225	     -0.69920489	     69.99950839	      1.22172190	     24.93019410	     -7.51137004	     -7.49999987	     68.48457986	    -16.19077496	    -10.94924405	     69.71023221	      1.21667307	     21.66576364	     -8.07845551	     -7.49999987	    -50.70108821	     -2.33817733	      3.02843786	     77.40433534	     -3.98423393	     37.66466547	    122.44857082	    105.61061072	     67.84095648	     -3.04693978	     19.10876109	    131.19996837	     96.13621362
      3.68333330	    -20.78212120	      2.11181726	      1.72998558	      0.74035025	      0.80178460	      0.05290078	     71.23303283	    -11.85336047	     -0.94462690	     70.37022377	      1.22819210	     24.66380704	     -7.85721414	     -7.49999987	     70.32203545	    -16.77724771	    -11.06264782	     70.03867057	      1.22240541	     21.06182268	     -7.26420797	     -7.49999987	    -51.51607181	     -2.37644375	      2.57896142	     80.63528969	     -3.21491357	     37.57044151	    124.09639921	    106.83954355	     71.86141940	     -3.36202121	     19.26542434	    132.62591642	     98.84069374
      3.70000000	    -21.18853898	      1.90267194	      1.72104736	      0.72952217	      0.79315293	      0.04658129	     72.60788465	    -11.87224923	     -0.96797321	     70.86855171	      1.23688956	     24.00946142	     -7.98845515	     -7.49999987	     71.89180365	    -17.16251730	    -11.23570655	     70.66927716	      1.23341157	     20.69026996	     -7.35354480	     -7.49999987	    -52.25851469	     -2.45847114	      2.38299838	     83.78694398	     -3.24907483	     37.23984912	    125.48516711	    108.09472673	     75.31679953	     -3.43828719	     19.43535968	    133.19674327	    101.36825819
      3.71666670	    -21.56216956	      1.71202097	      1.73413850	      0.73149167	      0.79018748	      0.04595130	     73.46070400	    -12.00520644	     -1.04817809	     71.23874953	      1.24335073	     23.68756615	     -7.94405483	     -7.49999987	     73.05001988	    -17.45215381	    -11.41118721	     71.38664444	      1.24593199	     20.27005978	     -7.64779036	     -7.49999987	    -52.74240259	     -2.31438279	      2.17147093	     85.53201766	     -3.29556260	     36.69596139	    126.76709607	    108.19273617	     77.13282219	     -3.41176892	     19.41651073	    134.35092486	    101.61299154
      3.73333330	    -21.50493143	      1.63190739	      1.83798502	      0.73009914	      0.78177735	      0.04730995	     74.06979130	    -12.18431399	     -0.88467555	     72.10512081	      1.25847177	     23.71925382	     -8.12505233	     -7.49999987	     73.70862392	    -17.65153599	    -11.43328649	     72.34168629	      1.26260061	     20.07292855	     -7.91653835	     -7.49999987	    -52.97725475	     -2.14432209	      2.21694095	     86.70268992	     -3.43341144	     36.30354455	    127.75130753	    107.09748806	     78.15839378	     -3.21477395	     19.40534053	    135.49175270	    100.64073634
      3.75000000	    -21.22664848	      1.49388205	      2.13800015	      0.73582101	      0.78087084	      0.05034063	     74.07372773	    -12.28433140	     -0.98429039	     73.03051769	      1.27462299	     23.95758500	     -8.65281806	     -7.49999987	     74.02121023	    -17.61404924	    -11.06645720	     73.26212792	      1.27866535	     19.84429077	     -8.07668948	     -7.49999987	    -53.10255040	     -2.02391392	      2.24215484	     86.63134547	     -3.66868269	     35.51139900	    129.18139109	    110.36978554	     78.20389511	     -3.03571891	     19.40418822	    136.70451397	    105.95984529
      3.76666670	    -21.10238796	      1.38097692	      2.34780918	      0.73363397	      0.78080469	      0.05069808	     73.95098107	    -12.22805636	     -1.04592582	     73.42434894	      1.28149664	     24.20185190	     -9.23252097	     -7.49999987	     74.33420948	    -17.37392247	    -10.54811014	     73.89903814	      1.28978153	     19.73814295	     -8.38396764	     -7.49999987	    -53.02169262	     -1.95040733	      2.25686296	     86.33415954	     -3.64402585	     35.27622976	    130.25872952	    111.04599380	     78.23288843	     -3.01954236	     19.59731339	    137.96247520	    106.00200298
      3.78333330	    -20.74588514	      1.37299092	      2.39974611	      0.73911199	      0.78644736	      0.05358736	     73.11999820	    -11.96408157	     -1.12920522	     73.20785008	      1.27771802	     24.58917431	     -9.61178989	     -7.49999987	     73.51990039	    -17.18584578	    -10.19448629	     73.50144025	      1.28284214	     19.59518143	     -8.29893333	     -7.49999987	    -53.05849810	     -2.14718230	      2.24030321	     85.35949676	     -3.69528614	     35.41379491	    130.74096530	    111.07129348	     77.33033319	     -3.08746091	     19.79767991	    138.69411506	    106.09114570
      3.80000000	    -20.27374898	      1.29214887	      2.35481117	      0.74133429	      0.79009759	      0.05696980	     72.12526223	    -11.57784068	     -1.41147414	     72.98675120	      1.27385912	     24.62954690	    -10.16285983	     -7.49999987	     72.49870503	    -17.17755033	     -9.91320068	     72.98080423	      1.27375532	     19.53694538	     -8.47401981	     -7.49999987	    -53.12353074	     -2.30042549	      2.31108431	     83.96231545	     -3.69742770	     35.06093849	    131.42720047	    112.29260424	     76.20555288	     -3.35780421	     19.70966369	    140.22455629	    106.45501254
